{
    "patcher": {
        "fileversion": 1,
        "appversion": {
            "major": 9,
            "minor": 1,
            "revision": 1,
            "architecture": "x64",
            "modernui": 1
        },
        "classnamespace": "box",
        "rect": [ 192.0, 395.0, 908.0, 373.0 ],
        "boxes": [
            {
                "box": {
                    "id": "obj-20",
                    "items": [ "absolute", ",", "relative" ],
                    "maxclass": "umenu",
                    "numinlets": 1,
                    "numoutlets": 3,
                    "outlettype": [ "int", "", "" ],
                    "parameter_enable": 0,
                    "patching_rect": [ 271.0, 199.101746, 100.0, 22.0 ]
                }
            },
            {
                "box": {
                    "id": "obj-21",
                    "maxclass": "message",
                    "numinlets": 2,
                    "numoutlets": 1,
                    "outlettype": [ "" ],
                    "patching_rect": [ 271.0, 224.20350600000006, 55.0, 22.0 ],
                    "text": "mode $1"
                }
            },
            {
                "box": {
                    "format": 6,
                    "id": "obj-2",
                    "maxclass": "flonum",
                    "numinlets": 1,
                    "numoutlets": 2,
                    "outlettype": [ "", "bang" ],
                    "parameter_enable": 0,
                    "patching_rect": [ 316.625, 311.0, 50.0, 22.0 ]
                }
            },
            {
                "box": {
                    "id": "obj-23",
                    "maxclass": "number",
                    "numinlets": 1,
                    "numoutlets": 2,
                    "outlettype": [ "", "bang" ],
                    "parameter_enable": 0,
                    "patching_rect": [ 373.625, 174.0, 50.0, 22.0 ]
                }
            },
            {
                "box": {
                    "id": "obj-16",
                    "maxclass": "message",
                    "numinlets": 2,
                    "numoutlets": 1,
                    "outlettype": [ "" ],
                    "patching_rect": [ 373.625, 199.101746, 93.0, 22.0 ],
                    "text": "caption align $1"
                }
            },
            {
                "box": {
                    "id": "obj-12",
                    "maxclass": "message",
                    "numinlets": 2,
                    "numoutlets": 1,
                    "outlettype": [ "" ],
                    "patching_rect": [ 388.625, 224.20350600000006, 127.0, 22.0 ],
                    "text": "caption color 1 0.5 0 1"
                }
            },
            {
                "box": {
                    "id": "obj-10",
                    "maxclass": "message",
                    "numinlets": 2,
                    "numoutlets": 1,
                    "outlettype": [ "" ],
                    "patching_rect": [ 288.625, 250.0, 105.0, 22.0 ],
                    "text": "color 1 0.2 0 0.5"
                }
            },
            {
                "box": {
                    "id": "obj-22",
                    "maxclass": "message",
                    "numinlets": 2,
                    "numoutlets": 1,
                    "outlettype": [ "" ],
                    "patching_rect": [ 403.625, 250.0, 128.0, 22.0 ],
                    "text": "caption text awesome!"
                }
            },
            {
                "box": {
                    "id": "obj-24",
                    "maxclass": "toggle",
                    "numinlets": 1,
                    "numoutlets": 1,
                    "outlettype": [ "int" ],
                    "parameter_enable": 0,
                    "patching_rect": [ 536.125, 221.0, 24.0, 24.0 ]
                }
            },
            {
                "box": {
                    "id": "obj-25",
                    "maxclass": "message",
                    "numinlets": 2,
                    "numoutlets": 1,
                    "outlettype": [ "" ],
                    "patching_rect": [ 536.125, 250.0, 61.0, 22.0 ],
                    "text": "enable $1"
                }
            },
            {
                "box": {
                    "bgmode": 0,
                    "border": 1,
                    "clickthrough": 0,
                    "enablehscroll": 0,
                    "enablevscroll": 0,
                    "id": "obj-26",
                    "lockeddragscroll": 0,
                    "lockedsize": 0,
                    "maxclass": "bpatcher",
                    "name": "mp.TUI.GLparameters.GUI.maxpat",
                    "numinlets": 1,
                    "numoutlets": 1,
                    "offset": [ 0.0, 0.0 ],
                    "outlettype": [ "" ],
                    "patching_rect": [ 618.125, 209.0, 135.5, 63.0 ],
                    "viewvisibility": 1
                }
            },
            {
                "box": {
                    "id": "obj-31",
                    "maxclass": "newobj",
                    "numinlets": 3,
                    "numoutlets": 3,
                    "outlettype": [ "", "", "anim" ],
                    "patching_rect": [ 316.625, 285.184082, 408.0, 22.0 ],
                    "text": "mp.TUI.slider.rounded /roundedslider_helper @scale 0.5 0.1 @margin 0.05"
                }
            },
            {
                "box": {
                    "fontname": "Arial",
                    "fontsize": 12.0,
                    "id": "obj-115",
                    "maxclass": "newobj",
                    "numinlets": 1,
                    "numoutlets": 1,
                    "outlettype": [ "" ],
                    "patcher": {
                        "fileversion": 1,
                        "appversion": {
                            "major": 9,
                            "minor": 1,
                            "revision": 1,
                            "architecture": "x64",
                            "modernui": 1
                        },
                        "classnamespace": "box",
                        "rect": [ 339.0, 376.0, 640.0, 480.0 ],
                        "boxes": [
                            {
                                "box": {
                                    "format": 6,
                                    "id": "obj-10",
                                    "maxclass": "flonum",
                                    "numinlets": 1,
                                    "numoutlets": 2,
                                    "outlettype": [ "", "bang" ],
                                    "parameter_enable": 0,
                                    "patching_rect": [ 171.0, 290.0, 50.0, 22.0 ]
                                }
                            },
                            {
                                "box": {
                                    "id": "obj-9",
                                    "maxclass": "newobj",
                                    "numinlets": 1,
                                    "numoutlets": 1,
                                    "outlettype": [ "" ],
                                    "patching_rect": [ 240.0, 336.0, 100.0, 22.0 ],
                                    "text": "prepend enable"
                                }
                            },
                            {
                                "box": {
                                    "id": "obj-6",
                                    "maxclass": "newobj",
                                    "numinlets": 2,
                                    "numoutlets": 1,
                                    "outlettype": [ "" ],
                                    "patching_rect": [ 50.0, 303.0, 100.0, 22.0 ],
                                    "text": "pak 0. 0."
                                }
                            },
                            {
                                "box": {
                                    "id": "obj-2",
                                    "maxclass": "newobj",
                                    "numinlets": 1,
                                    "numoutlets": 1,
                                    "outlettype": [ "" ],
                                    "patching_rect": [ 50.0, 336.0, 100.0, 22.0 ],
                                    "text": "prepend scale"
                                }
                            },
                            {
                                "box": {
                                    "fontname": "Arial",
                                    "fontsize": 12.0,
                                    "id": "obj-8",
                                    "maxclass": "newobj",
                                    "numinlets": 1,
                                    "numoutlets": 1,
                                    "outlettype": [ "int" ],
                                    "patching_rect": [ 314.5, 197.756348, 24.0, 22.0 ],
                                    "text": "t 0"
                                }
                            },
                            {
                                "box": {
                                    "fontname": "Arial",
                                    "fontsize": 12.0,
                                    "id": "obj-7",
                                    "maxclass": "newobj",
                                    "numinlets": 2,
                                    "numoutlets": 1,
                                    "outlettype": [ "int" ],
                                    "patching_rect": [ 305.0, 259.0, 32.5, 22.0 ],
                                    "text": "int"
                                }
                            },
                            {
                                "box": {
                                    "fontname": "Arial",
                                    "fontsize": 12.0,
                                    "id": "obj-5",
                                    "maxclass": "newobj",
                                    "numinlets": 2,
                                    "numoutlets": 2,
                                    "outlettype": [ "bang", "" ],
                                    "patching_rect": [ 314.5, 124.0, 36.0, 22.0 ],
                                    "text": "sel 0"
                                }
                            },
                            {
                                "box": {
                                    "fontname": "Arial",
                                    "fontsize": 12.0,
                                    "id": "obj-4",
                                    "maxclass": "newobj",
                                    "numinlets": 1,
                                    "numoutlets": 2,
                                    "outlettype": [ "int", "int" ],
                                    "patching_rect": [ 50.0, 80.0, 283.5, 22.0 ],
                                    "text": "t i i"
                                }
                            },
                            {
                                "box": {
                                    "id": "obj-3",
                                    "maxclass": "button",
                                    "numinlets": 1,
                                    "numoutlets": 1,
                                    "outlettype": [ "bang" ],
                                    "parameter_enable": 0,
                                    "patching_rect": [ 280.0, 203.0, 20.0, 20.0 ]
                                }
                            },
                            {
                                "box": {
                                    "fontname": "Arial",
                                    "fontsize": 12.0,
                                    "id": "obj-111",
                                    "maxclass": "message",
                                    "numinlets": 2,
                                    "numoutlets": 1,
                                    "outlettype": [ "" ],
                                    "patching_rect": [ 215.959473, 146.756348, 45.0, 22.0 ],
                                    "text": "$1 300"
                                }
                            },
                            {
                                "box": {
                                    "id": "obj-110",
                                    "maxclass": "toggle",
                                    "numinlets": 1,
                                    "numoutlets": 1,
                                    "outlettype": [ "int" ],
                                    "parameter_enable": 0,
                                    "patching_rect": [ 215.959473, 106.756348, 20.0, 20.0 ]
                                }
                            },
                            {
                                "box": {
                                    "id": "obj-108",
                                    "maxclass": "button",
                                    "numinlets": 1,
                                    "numoutlets": 1,
                                    "outlettype": [ "bang" ],
                                    "parameter_enable": 0,
                                    "patching_rect": [ 119.5, 186.756348, 20.0, 20.0 ]
                                }
                            },
                            {
                                "box": {
                                    "fontname": "Arial",
                                    "fontsize": 12.0,
                                    "id": "obj-101",
                                    "maxclass": "newobj",
                                    "numinlets": 2,
                                    "numoutlets": 1,
                                    "outlettype": [ "float" ],
                                    "patching_rect": [ 215.959473, 228.756348, 33.0, 22.0 ],
                                    "text": "* 0.1"
                                }
                            },
                            {
                                "box": {
                                    "fontname": "Arial",
                                    "fontsize": 12.0,
                                    "id": "obj-102",
                                    "maxclass": "newobj",
                                    "numinlets": 2,
                                    "numoutlets": 1,
                                    "outlettype": [ "float" ],
                                    "patching_rect": [ 215.959473, 199.756348, 46.0, 22.0 ],
                                    "text": "pow 4."
                                }
                            },
                            {
                                "box": {
                                    "fontname": "Arial",
                                    "fontsize": 12.0,
                                    "id": "obj-103",
                                    "maxclass": "newobj",
                                    "numinlets": 3,
                                    "numoutlets": 2,
                                    "outlettype": [ "", "bang" ],
                                    "patching_rect": [ 215.959473, 173.756348, 59.0, 22.0 ],
                                    "text": "line 1. 20"
                                }
                            },
                            {
                                "box": {
                                    "fontname": "Arial",
                                    "fontsize": 12.0,
                                    "id": "obj-100",
                                    "maxclass": "newobj",
                                    "numinlets": 2,
                                    "numoutlets": 1,
                                    "outlettype": [ "float" ],
                                    "patching_rect": [ 50.0, 226.756348, 35.0, 22.0 ],
                                    "text": "* 0.5"
                                }
                            },
                            {
                                "box": {
                                    "fontname": "Arial",
                                    "fontsize": 12.0,
                                    "id": "obj-99",
                                    "maxclass": "newobj",
                                    "numinlets": 2,
                                    "numoutlets": 1,
                                    "outlettype": [ "float" ],
                                    "patching_rect": [ 50.0, 197.756348, 46.0, 22.0 ],
                                    "text": "pow 4."
                                }
                            },
                            {
                                "box": {
                                    "fontname": "Arial",
                                    "fontsize": 12.0,
                                    "id": "obj-98",
                                    "maxclass": "message",
                                    "numinlets": 2,
                                    "numoutlets": 1,
                                    "outlettype": [ "" ],
                                    "patching_rect": [ 50.0, 146.756348, 45.0, 22.0 ],
                                    "text": "$1 300"
                                }
                            },
                            {
                                "box": {
                                    "fontname": "Arial",
                                    "fontsize": 12.0,
                                    "id": "obj-91",
                                    "maxclass": "newobj",
                                    "numinlets": 3,
                                    "numoutlets": 2,
                                    "outlettype": [ "", "bang" ],
                                    "patching_rect": [ 50.0, 171.756348, 59.0, 22.0 ],
                                    "text": "line 1. 20"
                                }
                            },
                            {
                                "box": {
                                    "fontname": "Arial",
                                    "fontsize": 12.0,
                                    "format": 6,
                                    "id": "obj-90",
                                    "maxclass": "flonum",
                                    "numinlets": 1,
                                    "numoutlets": 2,
                                    "outlettype": [ "", "bang" ],
                                    "parameter_enable": 0,
                                    "patching_rect": [ 50.0, 249.756348, 73.0, 22.0 ]
                                }
                            },
                            {
                                "box": {
                                    "comment": "",
                                    "id": "obj-112",
                                    "index": 1,
                                    "maxclass": "inlet",
                                    "numinlets": 0,
                                    "numoutlets": 1,
                                    "outlettype": [ "int" ],
                                    "patching_rect": [ 50.0, 40.0, 25.0, 25.0 ]
                                }
                            },
                            {
                                "box": {
                                    "comment": "",
                                    "id": "obj-113",
                                    "index": 1,
                                    "maxclass": "outlet",
                                    "numinlets": 1,
                                    "numoutlets": 0,
                                    "patching_rect": [ 48.0, 385.756348, 25.0, 25.0 ]
                                }
                            }
                        ],
                        "lines": [
                            {
                                "patchline": {
                                    "destination": [ "obj-6", 1 ],
                                    "source": [ "obj-10", 0 ]
                                }
                            },
                            {
                                "patchline": {
                                    "destination": [ "obj-90", 0 ],
                                    "source": [ "obj-100", 0 ]
                                }
                            },
                            {
                                "patchline": {
                                    "destination": [ "obj-6", 1 ],
                                    "source": [ "obj-101", 0 ]
                                }
                            },
                            {
                                "patchline": {
                                    "destination": [ "obj-101", 0 ],
                                    "source": [ "obj-102", 0 ]
                                }
                            },
                            {
                                "patchline": {
                                    "destination": [ "obj-102", 0 ],
                                    "source": [ "obj-103", 0 ]
                                }
                            },
                            {
                                "patchline": {
                                    "destination": [ "obj-3", 0 ],
                                    "source": [ "obj-103", 1 ]
                                }
                            },
                            {
                                "patchline": {
                                    "destination": [ "obj-110", 0 ],
                                    "source": [ "obj-108", 0 ]
                                }
                            },
                            {
                                "patchline": {
                                    "destination": [ "obj-111", 0 ],
                                    "source": [ "obj-110", 0 ]
                                }
                            },
                            {
                                "patchline": {
                                    "destination": [ "obj-103", 0 ],
                                    "source": [ "obj-111", 0 ]
                                }
                            },
                            {
                                "patchline": {
                                    "destination": [ "obj-4", 0 ],
                                    "source": [ "obj-112", 0 ]
                                }
                            },
                            {
                                "patchline": {
                                    "destination": [ "obj-113", 0 ],
                                    "source": [ "obj-2", 0 ]
                                }
                            },
                            {
                                "patchline": {
                                    "destination": [ "obj-7", 0 ],
                                    "source": [ "obj-3", 0 ]
                                }
                            },
                            {
                                "patchline": {
                                    "destination": [ "obj-5", 0 ],
                                    "source": [ "obj-4", 1 ]
                                }
                            },
                            {
                                "patchline": {
                                    "destination": [ "obj-98", 0 ],
                                    "source": [ "obj-4", 0 ]
                                }
                            },
                            {
                                "patchline": {
                                    "destination": [ "obj-7", 1 ],
                                    "order": 0,
                                    "source": [ "obj-5", 1 ]
                                }
                            },
                            {
                                "patchline": {
                                    "destination": [ "obj-8", 0 ],
                                    "source": [ "obj-5", 0 ]
                                }
                            },
                            {
                                "patchline": {
                                    "destination": [ "obj-9", 0 ],
                                    "order": 1,
                                    "source": [ "obj-5", 1 ]
                                }
                            },
                            {
                                "patchline": {
                                    "destination": [ "obj-2", 0 ],
                                    "source": [ "obj-6", 0 ]
                                }
                            },
                            {
                                "patchline": {
                                    "destination": [ "obj-9", 0 ],
                                    "source": [ "obj-7", 0 ]
                                }
                            },
                            {
                                "patchline": {
                                    "destination": [ "obj-7", 1 ],
                                    "source": [ "obj-8", 0 ]
                                }
                            },
                            {
                                "patchline": {
                                    "destination": [ "obj-113", 0 ],
                                    "source": [ "obj-9", 0 ]
                                }
                            },
                            {
                                "patchline": {
                                    "destination": [ "obj-6", 0 ],
                                    "source": [ "obj-90", 0 ]
                                }
                            },
                            {
                                "patchline": {
                                    "destination": [ "obj-108", 0 ],
                                    "source": [ "obj-91", 1 ]
                                }
                            },
                            {
                                "patchline": {
                                    "destination": [ "obj-99", 0 ],
                                    "source": [ "obj-91", 0 ]
                                }
                            },
                            {
                                "patchline": {
                                    "destination": [ "obj-91", 0 ],
                                    "source": [ "obj-98", 0 ]
                                }
                            },
                            {
                                "patchline": {
                                    "destination": [ "obj-100", 0 ],
                                    "source": [ "obj-99", 0 ]
                                }
                            }
                        ]
                    },
                    "patching_rect": [ 783.18689, 250.0, 58.0, 22.0 ],
                    "text": "p appear"
                }
            },
            {
                "box": {
                    "id": "obj-94",
                    "maxclass": "toggle",
                    "numinlets": 1,
                    "numoutlets": 1,
                    "outlettype": [ "int" ],
                    "parameter_enable": 0,
                    "patching_rect": [ 783.18689, 220.0, 20.0, 20.0 ]
                }
            },
            {
                "box": {
                    "fontname": "Arial",
                    "fontsize": 12.0,
                    "format": 6,
                    "id": "obj-52",
                    "maxclass": "flonum",
                    "numinlets": 1,
                    "numoutlets": 2,
                    "outlettype": [ "", "bang" ],
                    "parameter_enable": 0,
                    "patching_rect": [ 673.333313, 91.0, 50.0, 22.0 ]
                }
            },
            {
                "box": {
                    "fontname": "Arial",
                    "fontsize": 12.0,
                    "id": "obj-54",
                    "maxclass": "newobj",
                    "numinlets": 2,
                    "numoutlets": 1,
                    "outlettype": [ "" ],
                    "patching_rect": [ 623.333313, 121.0, 83.0, 22.0 ],
                    "text": "pak margin 1."
                }
            },
            {
                "box": {
                    "args": [ "mp.TUI.slider.rounded", "@description", "A rounded TUI slider.", "@categories", "component" ],
                    "bgmode": 0,
                    "border": 0,
                    "clickthrough": 0,
                    "enablehscroll": 0,
                    "enablevscroll": 0,
                    "id": "obj-5",
                    "lockeddragscroll": 0,
                    "lockedsize": 0,
                    "maxclass": "bpatcher",
                    "name": "mp.TUI.helpheader.maxpat",
                    "numinlets": 1,
                    "numoutlets": 0,
                    "offset": [ 0.0, 0.0 ],
                    "patching_rect": [ -0.5, 0.060059, 802.0, 57.0 ],
                    "viewvisibility": 1
                }
            },
            {
                "box": {
                    "fontname": "Arial",
                    "fontsize": 9.0,
                    "hidden": 1,
                    "id": "obj-6",
                    "maxclass": "newobj",
                    "numinlets": 4,
                    "numoutlets": 0,
                    "patching_rect": [ 377.0, 27.0, 95.0, 19.0 ],
                    "text": "bgcolor 0.9 0.91 0.91"
                }
            },
            {
                "box": {
                    "id": "obj-14",
                    "maxclass": "newobj",
                    "numinlets": 0,
                    "numoutlets": 1,
                    "outlettype": [ "" ],
                    "patcher": {
                        "fileversion": 1,
                        "appversion": {
                            "major": 9,
                            "minor": 1,
                            "revision": 1,
                            "architecture": "x64",
                            "modernui": 1
                        },
                        "classnamespace": "box",
                        "rect": [ 603.0, 473.0, 640.0, 480.0 ],
                        "subpatcher_template": "WM-lib.HelpPatcher",
                        "boxes": [
                            {
                                "box": {
                                    "id": "obj-5",
                                    "maxclass": "toggle",
                                    "numinlets": 1,
                                    "numoutlets": 1,
                                    "outlettype": [ "int" ],
                                    "parameter_enable": 0,
                                    "patching_rect": [ 252.875, 104.056641, 24.0, 24.0 ]
                                }
                            },
                            {
                                "box": {
                                    "fontname": "Arial",
                                    "fontsize": 11.0,
                                    "id": "obj-8",
                                    "maxclass": "message",
                                    "numinlets": 2,
                                    "numoutlets": 1,
                                    "outlettype": [ "" ],
                                    "patching_rect": [ 252.875, 131.056641, 78.0, 21.0 ],
                                    "text": "fsmenubar $1"
                                }
                            },
                            {
                                "box": {
                                    "id": "obj-9",
                                    "maxclass": "toggle",
                                    "numinlets": 1,
                                    "numoutlets": 1,
                                    "outlettype": [ "int" ],
                                    "parameter_enable": 0,
                                    "patching_rect": [ 202.875, 104.056641, 24.0, 24.0 ]
                                }
                            },
                            {
                                "box": {
                                    "fontname": "Arial",
                                    "fontsize": 11.0,
                                    "id": "obj-7",
                                    "maxclass": "message",
                                    "numinlets": 2,
                                    "numoutlets": 1,
                                    "outlettype": [ "" ],
                                    "patching_rect": [ 202.875, 131.056641, 48.0, 21.0 ],
                                    "text": "fsaa $1"
                                }
                            },
                            {
                                "box": {
                                    "fontname": "Arial",
                                    "fontsize": 11.0,
                                    "id": "obj-61",
                                    "maxclass": "message",
                                    "numinlets": 2,
                                    "numoutlets": 1,
                                    "outlettype": [ "" ],
                                    "patching_rect": [ 50.0, 131.056641, 115.0, 21.0 ],
                                    "text": "fullscreen $1, getsize"
                                }
                            },
                            {
                                "box": {
                                    "id": "obj-63",
                                    "maxclass": "toggle",
                                    "numinlets": 1,
                                    "numoutlets": 1,
                                    "outlettype": [ "int" ],
                                    "parameter_enable": 0,
                                    "patching_rect": [ 50.0, 104.056641, 20.0, 20.0 ]
                                }
                            },
                            {
                                "box": {
                                    "fontname": "Arial",
                                    "fontsize": 11.0,
                                    "id": "obj-64",
                                    "maxclass": "newobj",
                                    "numinlets": 0,
                                    "numoutlets": 1,
                                    "outlettype": [ "bang" ],
                                    "patcher": {
                                        "fileversion": 1,
                                        "appversion": {
                                            "major": 9,
                                            "minor": 1,
                                            "revision": 1,
                                            "architecture": "x64",
                                            "modernui": 1
                                        },
                                        "classnamespace": "box",
                                        "rect": [ 34.0, 79.0, 640.0, 480.0 ],
                                        "boxes": [
                                            {
                                                "box": {
                                                    "id": "obj-21",
                                                    "maxclass": "newobj",
                                                    "numinlets": 1,
                                                    "numoutlets": 1,
                                                    "outlettype": [ "" ],
                                                    "patching_rect": [ 316.0, 187.0, 72.0, 22.0 ],
                                                    "text": "loadmess 0"
                                                }
                                            },
                                            {
                                                "box": {
                                                    "comment": "",
                                                    "id": "obj-8",
                                                    "index": 1,
                                                    "maxclass": "outlet",
                                                    "numinlets": 1,
                                                    "numoutlets": 0,
                                                    "patching_rect": [ 284.0, 224.0, 25.0, 25.0 ]
                                                }
                                            },
                                            {
                                                "box": {
                                                    "fontname": "Arial",
                                                    "fontsize": 12.0,
                                                    "id": "obj-2",
                                                    "maxclass": "newobj",
                                                    "numinlets": 2,
                                                    "numoutlets": 2,
                                                    "outlettype": [ "bang", "" ],
                                                    "patching_rect": [ 284.0, 137.0, 43.0, 22.0 ],
                                                    "text": "sel 27"
                                                }
                                            },
                                            {
                                                "box": {
                                                    "fontname": "Arial",
                                                    "fontsize": 12.0,
                                                    "id": "obj-1",
                                                    "maxclass": "newobj",
                                                    "numinlets": 0,
                                                    "numoutlets": 4,
                                                    "outlettype": [ "int", "int", "int", "int" ],
                                                    "patching_rect": [ 284.0, 110.0, 59.5, 22.0 ],
                                                    "text": "key"
                                                }
                                            }
                                        ],
                                        "lines": [
                                            {
                                                "patchline": {
                                                    "destination": [ "obj-2", 0 ],
                                                    "source": [ "obj-1", 0 ]
                                                }
                                            },
                                            {
                                                "patchline": {
                                                    "destination": [ "obj-8", 0 ],
                                                    "source": [ "obj-2", 0 ]
                                                }
                                            },
                                            {
                                                "patchline": {
                                                    "destination": [ "obj-8", 0 ],
                                                    "source": [ "obj-21", 0 ]
                                                }
                                            }
                                        ],
                                        "bgfillcolor_type": "gradient",
                                        "bgfillcolor_color1": [ 0.435294, 0.462745, 0.498039, 1.0 ],
                                        "bgfillcolor_color2": [ 0.290196, 0.309804, 0.301961, 1.0 ],
                                        "bgfillcolor_color": [ 0.290196, 0.309804, 0.301961, 1.0 ]
                                    },
                                    "patching_rect": [ 72.5, 104.056641, 38.0, 21.0 ],
                                    "text": "p esc"
                                }
                            },
                            {
                                "box": {
                                    "comment": "",
                                    "id": "obj-10",
                                    "index": 1,
                                    "maxclass": "outlet",
                                    "numinlets": 1,
                                    "numoutlets": 0,
                                    "patching_rect": [ 162.583344, 212.056641, 30.0, 30.0 ]
                                }
                            }
                        ],
                        "lines": [
                            {
                                "patchline": {
                                    "destination": [ "obj-8", 0 ],
                                    "source": [ "obj-5", 0 ]
                                }
                            },
                            {
                                "patchline": {
                                    "destination": [ "obj-10", 0 ],
                                    "source": [ "obj-61", 0 ]
                                }
                            },
                            {
                                "patchline": {
                                    "destination": [ "obj-61", 0 ],
                                    "source": [ "obj-63", 0 ]
                                }
                            },
                            {
                                "patchline": {
                                    "destination": [ "obj-63", 0 ],
                                    "source": [ "obj-64", 0 ]
                                }
                            },
                            {
                                "patchline": {
                                    "destination": [ "obj-10", 0 ],
                                    "source": [ "obj-7", 0 ]
                                }
                            },
                            {
                                "patchline": {
                                    "destination": [ "obj-10", 0 ],
                                    "source": [ "obj-8", 0 ]
                                }
                            },
                            {
                                "patchline": {
                                    "destination": [ "obj-7", 0 ],
                                    "source": [ "obj-9", 0 ]
                                }
                            }
                        ],
                        "bgcolor": [ 0.9, 0.91, 0.91, 1.0 ]
                    },
                    "patching_rect": [ 209.125, 74.0, 59.0, 22.0 ],
                    "saved_object_attributes": {
                        "locked_bgcolor": [ 0.9, 0.91, 0.91, 1.0 ]
                    },
                    "text": "p options"
                }
            },
            {
                "box": {
                    "fontsize": 14.0,
                    "id": "obj-11",
                    "maxclass": "newobj",
                    "numinlets": 1,
                    "numoutlets": 0,
                    "patcher": {
                        "fileversion": 1,
                        "appversion": {
                            "major": 9,
                            "minor": 1,
                            "revision": 1,
                            "architecture": "x64",
                            "modernui": 1
                        },
                        "classnamespace": "box",
                        "rect": [ 550.0, 275.0, 688.0, 259.0 ],
                        "subpatcher_template": "WM-lib.HelpPatcher",
                        "boxes": [
                            {
                                "box": {
                                    "id": "obj-7",
                                    "maxclass": "newobj",
                                    "numinlets": 2,
                                    "numoutlets": 2,
                                    "outlettype": [ "", "" ],
                                    "patching_rect": [ 450.0, 155.0, 210.0, 22.0 ],
                                    "text": "mp.TUI.toes 10 /roundedslider_helper"
                                }
                            },
                            {
                                "box": {
                                    "id": "obj-1",
                                    "maxclass": "toggle",
                                    "numinlets": 1,
                                    "numoutlets": 1,
                                    "outlettype": [ "int" ],
                                    "parameter_enable": 0,
                                    "patching_rect": [ 343.000061, 96.5, 24.0, 24.0 ]
                                }
                            },
                            {
                                "box": {
                                    "id": "obj-3",
                                    "maxclass": "newobj",
                                    "numinlets": 2,
                                    "numoutlets": 1,
                                    "outlettype": [ "" ],
                                    "patching_rect": [ 343.000061, 127.5, 52.0, 22.0 ],
                                    "text": "gate 1 0"
                                }
                            },
                            {
                                "box": {
                                    "id": "obj-4",
                                    "maxclass": "newobj",
                                    "numinlets": 1,
                                    "numoutlets": 0,
                                    "patching_rect": [ 343.000061, 155.0, 101.0, 22.0 ],
                                    "text": "print raw-pointers"
                                }
                            },
                            {
                                "box": {
                                    "id": "obj-13",
                                    "maxclass": "toggle",
                                    "numinlets": 1,
                                    "numoutlets": 1,
                                    "outlettype": [ "int" ],
                                    "parameter_enable": 0,
                                    "patching_rect": [ 17.0, 96.5, 24.0, 24.0 ]
                                }
                            },
                            {
                                "box": {
                                    "id": "obj-9",
                                    "maxclass": "newobj",
                                    "numinlets": 2,
                                    "numoutlets": 1,
                                    "outlettype": [ "" ],
                                    "patching_rect": [ 17.0, 127.5, 52.0, 22.0 ],
                                    "text": "gate 1 0"
                                }
                            },
                            {
                                "box": {
                                    "id": "obj-8",
                                    "maxclass": "newobj",
                                    "numinlets": 1,
                                    "numoutlets": 0,
                                    "patching_rect": [ 17.0, 155.0, 114.0, 22.0 ],
                                    "text": "print object-pointers"
                                }
                            },
                            {
                                "box": {
                                    "id": "obj-11",
                                    "maxclass": "button",
                                    "numinlets": 1,
                                    "numoutlets": 1,
                                    "outlettype": [ "bang" ],
                                    "parameter_enable": 0,
                                    "patching_rect": [ 71.0, 125.5, 24.0, 24.0 ]
                                }
                            },
                            {
                                "box": {
                                    "id": "obj-14",
                                    "maxclass": "button",
                                    "numinlets": 1,
                                    "numoutlets": 1,
                                    "outlettype": [ "bang" ],
                                    "parameter_enable": 0,
                                    "patching_rect": [ 461.0, 34.0, 24.0, 24.0 ]
                                }
                            },
                            {
                                "box": {
                                    "id": "obj-6",
                                    "maxclass": "number",
                                    "numinlets": 1,
                                    "numoutlets": 2,
                                    "outlettype": [ "", "bang" ],
                                    "parameter_enable": 0,
                                    "patching_rect": [ 539.000122, 102.0, 50.0, 22.0 ]
                                }
                            },
                            {
                                "box": {
                                    "id": "obj-2",
                                    "maxclass": "button",
                                    "numinlets": 1,
                                    "numoutlets": 1,
                                    "outlettype": [ "bang" ],
                                    "parameter_enable": 0,
                                    "patching_rect": [ 213.000031, 102.0, 24.0, 24.0 ]
                                }
                            },
                            {
                                "box": {
                                    "fontsize": 18.0,
                                    "id": "obj-49",
                                    "maxclass": "newobj",
                                    "numinlets": 2,
                                    "numoutlets": 4,
                                    "outlettype": [ "", "", "", "" ],
                                    "patching_rect": [ 50.0, 62.0, 508.000093, 29.0 ],
                                    "text": "mp.TUI.hub /roundedslider_helper"
                                }
                            },
                            {
                                "box": {
                                    "id": "obj-16",
                                    "maxclass": "newobj",
                                    "numinlets": 1,
                                    "numoutlets": 1,
                                    "outlettype": [ "" ],
                                    "patching_rect": [ 539.000122, 17.0, 99.0, 22.0 ],
                                    "text": "udpreceive 3333"
                                }
                            },
                            {
                                "box": {
                                    "comment": "",
                                    "id": "obj-10",
                                    "index": 1,
                                    "maxclass": "inlet",
                                    "numinlets": 0,
                                    "numoutlets": 1,
                                    "outlettype": [ "" ],
                                    "patching_rect": [ 50.0, 28.0, 30.0, 30.0 ]
                                }
                            }
                        ],
                        "lines": [
                            {
                                "patchline": {
                                    "destination": [ "obj-3", 0 ],
                                    "source": [ "obj-1", 0 ]
                                }
                            },
                            {
                                "patchline": {
                                    "destination": [ "obj-49", 0 ],
                                    "source": [ "obj-10", 0 ]
                                }
                            },
                            {
                                "patchline": {
                                    "destination": [ "obj-9", 0 ],
                                    "source": [ "obj-13", 0 ]
                                }
                            },
                            {
                                "patchline": {
                                    "destination": [ "obj-14", 0 ],
                                    "order": 1,
                                    "source": [ "obj-16", 0 ]
                                }
                            },
                            {
                                "patchline": {
                                    "destination": [ "obj-49", 1 ],
                                    "order": 0,
                                    "source": [ "obj-16", 0 ]
                                }
                            },
                            {
                                "patchline": {
                                    "destination": [ "obj-4", 0 ],
                                    "source": [ "obj-3", 0 ]
                                }
                            },
                            {
                                "patchline": {
                                    "destination": [ "obj-11", 0 ],
                                    "order": 0,
                                    "source": [ "obj-49", 0 ]
                                }
                            },
                            {
                                "patchline": {
                                    "destination": [ "obj-2", 0 ],
                                    "source": [ "obj-49", 1 ]
                                }
                            },
                            {
                                "patchline": {
                                    "destination": [ "obj-3", 1 ],
                                    "order": 1,
                                    "source": [ "obj-49", 2 ]
                                }
                            },
                            {
                                "patchline": {
                                    "destination": [ "obj-6", 0 ],
                                    "source": [ "obj-49", 3 ]
                                }
                            },
                            {
                                "patchline": {
                                    "destination": [ "obj-7", 0 ],
                                    "order": 0,
                                    "source": [ "obj-49", 2 ]
                                }
                            },
                            {
                                "patchline": {
                                    "destination": [ "obj-9", 1 ],
                                    "order": 1,
                                    "source": [ "obj-49", 0 ]
                                }
                            },
                            {
                                "patchline": {
                                    "destination": [ "obj-8", 0 ],
                                    "source": [ "obj-9", 0 ]
                                }
                            }
                        ],
                        "styles": [
                            {
                                "name": "AudioStatus_Menu",
                                "default": {
                                    "bgfillcolor": {
                                        "angle": 270.0,
                                        "autogradient": 0,
                                        "color": [ 0.294118, 0.313726, 0.337255, 1 ],
                                        "color1": [ 0.454902, 0.462745, 0.482353, 0.0 ],
                                        "color2": [ 0.290196, 0.309804, 0.301961, 1.0 ],
                                        "proportion": 0.39,
                                        "type": "color"
                                    }
                                },
                                "parentstyle": "",
                                "multi": 0
                            }
                        ],
                        "bgcolor": [ 0.9, 0.91, 0.91, 1.0 ]
                    },
                    "patching_rect": [ 465.625, 133.0, 76.0, 24.0 ],
                    "saved_object_attributes": {
                        "locked_bgcolor": [ 0.9, 0.91, 0.91, 1.0 ]
                    },
                    "text": "p TUI-Hub"
                }
            },
            {
                "box": {
                    "fontname": "Arial",
                    "fontsize": 11.0,
                    "id": "obj-67",
                    "maxclass": "newobj",
                    "numinlets": 1,
                    "numoutlets": 1,
                    "outlettype": [ "bang" ],
                    "patching_rect": [ 22.0, 188.0, 57.0, 21.0 ],
                    "text": "loadbang"
                }
            },
            {
                "box": {
                    "fontsize": 11.0,
                    "id": "obj-29",
                    "legacytextcolor": 1,
                    "maxclass": "textbutton",
                    "mode": 1,
                    "numinlets": 1,
                    "numoutlets": 3,
                    "outlettype": [ "", "", "int" ],
                    "parameter_enable": 0,
                    "patching_rect": [ 9.0, 101.0, 71.0, 43.0 ],
                    "text": "OFF",
                    "texton": "ON",
                    "usebgoncolor": 1,
                    "usetextovercolor": 1
                }
            },
            {
                "box": {
                    "fontname": "Arial",
                    "fontsize": 11.0,
                    "id": "obj-19",
                    "maxclass": "newobj",
                    "numinlets": 1,
                    "numoutlets": 2,
                    "outlettype": [ "bang", "" ],
                    "patching_rect": [ 209.125, 101.0, 241.0, 21.0 ],
                    "text": "jit.window /roundedslider_helper @fsmenubar 0"
                }
            },
            {
                "box": {
                    "fontname": "Arial",
                    "fontsize": 11.0,
                    "id": "obj-13",
                    "maxclass": "newobj",
                    "numinlets": 1,
                    "numoutlets": 2,
                    "outlettype": [ "bang", "" ],
                    "patching_rect": [ 9.0, 253.184082, 221.0, 21.0 ],
                    "text": "jit.gl.render /roundedslider_helper @ortho 1"
                }
            },
            {
                "box": {
                    "fontname": "Arial",
                    "fontsize": 11.0,
                    "id": "obj-15",
                    "maxclass": "newobj",
                    "numinlets": 1,
                    "numoutlets": 2,
                    "outlettype": [ "bang", "erase" ],
                    "patching_rect": [ 9.0, 218.0, 64.0, 21.0 ],
                    "text": "t b erase"
                }
            },
            {
                "box": {
                    "fontname": "Arial",
                    "fontsize": 11.0,
                    "id": "obj-18",
                    "maxclass": "newobj",
                    "numinlets": 2,
                    "numoutlets": 1,
                    "outlettype": [ "bang" ],
                    "patching_rect": [ 9.0, 158.0, 63.0, 21.0 ],
                    "text": "qmetro 30"
                }
            }
        ],
        "lines": [
            {
                "patchline": {
                    "destination": [ "obj-31", 2 ],
                    "midpoints": [ 298.125, 278.092041, 715.125, 278.092041 ],
                    "source": [ "obj-10", 0 ]
                }
            },
            {
                "patchline": {
                    "destination": [ "obj-31", 2 ],
                    "source": [ "obj-115", 0 ]
                }
            },
            {
                "patchline": {
                    "destination": [ "obj-31", 2 ],
                    "midpoints": [ 398.125, 277.092041, 715.125, 277.092041 ],
                    "source": [ "obj-12", 0 ]
                }
            },
            {
                "patchline": {
                    "destination": [ "obj-19", 0 ],
                    "source": [ "obj-14", 0 ]
                }
            },
            {
                "patchline": {
                    "destination": [ "obj-13", 0 ],
                    "source": [ "obj-15", 1 ]
                }
            },
            {
                "patchline": {
                    "destination": [ "obj-13", 0 ],
                    "source": [ "obj-15", 0 ]
                }
            },
            {
                "patchline": {
                    "destination": [ "obj-31", 2 ],
                    "midpoints": [ 383.125, 277.592041, 715.125, 277.592041 ],
                    "source": [ "obj-16", 0 ]
                }
            },
            {
                "patchline": {
                    "destination": [ "obj-15", 0 ],
                    "source": [ "obj-18", 0 ]
                }
            },
            {
                "patchline": {
                    "destination": [ "obj-11", 0 ],
                    "source": [ "obj-19", 1 ]
                }
            },
            {
                "patchline": {
                    "destination": [ "obj-31", 0 ],
                    "midpoints": [ 326.125, 340.0, 309.125, 340.0, 309.125, 281.184082, 326.125, 281.184082 ],
                    "source": [ "obj-2", 0 ]
                }
            },
            {
                "patchline": {
                    "destination": [ "obj-21", 0 ],
                    "source": [ "obj-20", 0 ]
                }
            },
            {
                "patchline": {
                    "destination": [ "obj-31", 2 ],
                    "midpoints": [ 280.5, 275.092041, 715.125, 275.092041 ],
                    "source": [ "obj-21", 0 ]
                }
            },
            {
                "patchline": {
                    "destination": [ "obj-31", 2 ],
                    "midpoints": [ 413.125, 278.092041, 715.125, 278.092041 ],
                    "source": [ "obj-22", 0 ]
                }
            },
            {
                "patchline": {
                    "destination": [ "obj-16", 0 ],
                    "source": [ "obj-23", 0 ]
                }
            },
            {
                "patchline": {
                    "destination": [ "obj-25", 0 ],
                    "source": [ "obj-24", 0 ]
                }
            },
            {
                "patchline": {
                    "destination": [ "obj-31", 2 ],
                    "midpoints": [ 545.625, 278.092041, 715.125, 278.092041 ],
                    "source": [ "obj-25", 0 ]
                }
            },
            {
                "patchline": {
                    "destination": [ "obj-31", 2 ],
                    "midpoints": [ 627.625, 277.592041, 715.125, 277.592041 ],
                    "source": [ "obj-26", 0 ]
                }
            },
            {
                "patchline": {
                    "destination": [ "obj-18", 0 ],
                    "source": [ "obj-29", 0 ]
                }
            },
            {
                "patchline": {
                    "destination": [ "obj-2", 0 ],
                    "source": [ "obj-31", 0 ]
                }
            },
            {
                "patchline": {
                    "destination": [ "obj-26", 0 ],
                    "midpoints": [ 715.125, 317.184082, 761.375, 317.184082, 761.375, 198.0, 627.625, 198.0 ],
                    "source": [ "obj-31", 2 ]
                }
            },
            {
                "patchline": {
                    "destination": [ "obj-54", 1 ],
                    "source": [ "obj-52", 0 ]
                }
            },
            {
                "patchline": {
                    "destination": [ "obj-31", 2 ],
                    "source": [ "obj-54", 0 ]
                }
            },
            {
                "patchline": {
                    "destination": [ "obj-15", 0 ],
                    "source": [ "obj-67", 0 ]
                }
            },
            {
                "patchline": {
                    "destination": [ "obj-115", 0 ],
                    "source": [ "obj-94", 0 ]
                }
            }
        ],
        "autosave": 0,
        "styles": [
            {
                "name": "AudioStatus_Menu",
                "default": {
                    "bgfillcolor": {
                        "angle": 270.0,
                        "autogradient": 0,
                        "color": [ 0.294118, 0.313726, 0.337255, 1 ],
                        "color1": [ 0.454902, 0.462745, 0.482353, 0.0 ],
                        "color2": [ 0.290196, 0.309804, 0.301961, 1.0 ],
                        "proportion": 0.39,
                        "type": "color"
                    }
                },
                "parentstyle": "",
                "multi": 0
            }
        ],
        "bgcolor": [ 0.9, 0.91, 0.91, 1.0 ]
    }
}